<?xml version="1.0" encoding="UTF-8"?><svg id="Capa_2" xmlns="http://www.w3.org/2000/svg" viewBox="0 0 48 48"><defs><style>.cls-1{fill:none;}.cls-1,.cls-2{stroke-width:0px;}.cls-2{fill:#e91c24;}</style></defs><rect class="cls-1" width="48" height="48"/><path class="cls-2" d="M9.75,37.49h4.12c5.96,0,5.62-5.42,5.62-5.42h0v.25c.05-9.31,4.78-11.51,6.72-12.03.37-.07.76-.15,1.18-.21l1.91-4.96.37-.97c.29-.19.6-.42.91-.69,2.54-2.06,3.83-4.52,3.83-4.52.14.25.25.51.32.74.23.7.2,1.27.15,1.6-.04.22-.08.34-.08.34,0,0,2.52.76,2.75,1.66.02.1.06.21.09.31.19.91.89,1.41.91,1.42.22.24.47.53.43.66,0,0-.46,1.21-1.41,2.12,0,0-.39-.04-.82.28-.11.07-.23.17-.34.31h0c-.16.23-.3.56-.3,1.04,0,.71.25,1.84,1.29,3.34-2.08,2.65-2.72,5.59-2.76,8.07-.04.8,0,1.71.17,2.72.26,1.83.73,3.03.73,3.03.3.74.94.97.94.97h0c.18.08.37.16.53.27s.25.28.25.49c0,.33-.26.59-.59.59h-1.86c-.77,0-1.06-.73-1.07-.73-.73-1.79-2.06-5.06-2.06-5.06,0,0-.56.58-.84.91-.27.33.13.59.05,1.36s-1.21,1.79-1.21,1.79c0,0,.6.19,1.17.49.23.09.4.32.4.59,0,.34-.28.63-.64.63h-8.18c-.87,0-1.47-.4-1.9-.91-.01-.03-.04-.06-.06-.08-.71.37-1.6.61-2.44.76-.81.13-1.55.19-2.05.22-.36,0-.58,0-.58,0h-5.71c-.39,0-.71-.32-.71-.71s.32-.7.71-.7"/></svg>